<?xml version="1.0" encoding="UTF-8" standalone="no"?>
<svg
   xmlns:dc="http://purl.org/dc/elements/1.1/"
   xmlns:cc="http://creativecommons.org/ns#"
   xmlns:rdf="http://www.w3.org/1999/02/22-rdf-syntax-ns#"
   xmlns:svg="http://www.w3.org/2000/svg"
   xmlns="http://www.w3.org/2000/svg"
   xmlns:xlink="http://www.w3.org/1999/xlink"
   xmlns:sodipodi="http://sodipodi.sourceforge.net/DTD/sodipodi-0.dtd"
   xmlns:inkscape="http://www.inkscape.org/namespaces/inkscape"
   width="100"
   height="17"
   viewBox="0 0 80 13.6"
   version="1.1"
   id="svg2"
   sodipodi:version="0.32"
   inkscape:version="0.92.4 (5da689c313, 2019-01-14)"
   sodipodi:docname="Sony Channel logo.svg">
  <title
     id="title4296">Dian Colombia logo</title>
  <metadata
     id="metadata59">
    <rdf:RDF>
      <cc:Work
         rdf:about="">
        <dc:format>image/svg+xml</dc:format>
        <dc:type
           rdf:resource="http://purl.org/dc/dcmitype/StillImage" />
        <dc:title>Dian Colombia logo</dc:title>
        <cc:license
           rdf:resource="http://scripts.sil.org/OFL" />
        <dc:date>27 feb 2020</dc:date>
        <dc:creator>
          <cc:Agent>
            <dc:title>EEIM</dc:title>
          </cc:Agent>
        </dc:creator>
      </cc:Work>
      <cc:License
         rdf:about="http://scripts.sil.org/OFL">
        <cc:permits
           rdf:resource="http://scripts.sil.org/pub/OFL/Reproduction" />
        <cc:permits
           rdf:resource="http://scripts.sil.org/pub/OFL/Distribution" />
        <cc:permits
           rdf:resource="http://scripts.sil.org/pub/OFL/Embedding" />
        <cc:permits
           rdf:resource="http://scripts.sil.org/pub/OFL/DerivativeWorks" />
        <cc:requires
           rdf:resource="http://scripts.sil.org/pub/OFL/Notice" />
        <cc:requires
           rdf:resource="http://scripts.sil.org/pub/OFL/Attribution" />
        <cc:requires
           rdf:resource="http://scripts.sil.org/pub/OFL/ShareAlike" />
        <cc:requires
           rdf:resource="http://scripts.sil.org/pub/OFL/DerivativeRenaming" />
        <cc:requires
           rdf:resource="http://scripts.sil.org/pub/OFL/BundlingWhenSelling" />
      </cc:License>
    </rdf:RDF>
  </metadata>
  <defs
     id="defs57">
    <linearGradient
       inkscape:collect="always"
       xlink:href="#linearGradient846"
       id="linearGradient848"
       x1="387.57999"
       y1="120.6496"
       x2="268.66495"
       y2="64.499718"
       gradientUnits="userSpaceOnUse" />
    <linearGradient
       inkscape:collect="always"
       id="linearGradient846">
      <stop
         style="stop-color:#19b3d8;stop-opacity:1;"
         offset="0"
         id="stop842" />
      <stop
         style="stop-color:#73ba72;stop-opacity:1"
         offset="1"
         id="stop844" />
    </linearGradient>
    <linearGradient
       inkscape:collect="always"
       xlink:href="#linearGradient838"
       id="linearGradient840"
       x1="342.7793"
       y1="306.98022"
       x2="345.49976"
       y2="421.23999"
       gradientUnits="userSpaceOnUse" />
    <linearGradient
       inkscape:collect="always"
       id="linearGradient838">
      <stop
         style="stop-color:#0bb4db;stop-opacity:1;"
         offset="0"
         id="stop834" />
      <stop
         style="stop-color:#0089b7;stop-opacity:1"
         offset="1"
         id="stop836" />
    </linearGradient>
  </defs>
  <sodipodi:namedview
     inkscape:window-height="705"
     inkscape:window-width="1366"
     inkscape:pageshadow="2"
     inkscape:pageopacity="0"
     guidetolerance="1"
     gridtolerance="1"
     objecttolerance="1"
     borderopacity="1.0"
     bordercolor="#666666"
     pagecolor="#ffffff"
     id="base"
     inkscape:zoom="1"
     inkscape:cx="69.942304"
     inkscape:cy="27.508014"
     inkscape:window-x="-8"
     inkscape:window-y="-8"
     inkscape:current-layer="svg2"
     showgrid="false"
     showguides="false"
     inkscape:showpageshadow="false"
     units="px"
     inkscape:window-maximized="1" />
  <g
     id="#ffffffff"
     transform="translate(0,-1127.4)" />
  <g
     id="#2acbffff-4"
     transform="matrix(0.74035173,0,0,0.75447038,-840.95699,-813.55387)"
     style="fill:#00ff00" />
  <g
     id="#20aabcff"
     transform="matrix(0.14862441,0,0,0.14862441,-1.8088634,-4.7757921)"
     style="fill:#00ff00">
    <path
       d="m 301.78,35.219603 h 8.05 l 77.75,85.429997 -15.56,0.12 -65.72,-72.899997 -40.7,44.97 h 55.07 c 0,0 5.21,5.85 7.81,8.789997 -23.22,0.05 -47.43,-0.22875 -70.65,-0.14875 0,0 -18,19.33009 -17.83,19.25875 -5.27,0.19 -10.56,0.1 -15.83,-0.04 0,0 54.58621,-60.214901 77.61,-85.479997 z"
       id="path6"
       inkscape:connector-curvature="0"
       style="opacity:1;fill:url(#linearGradient848);fill-opacity:1"
       sodipodi:nodetypes="cccccccccccc" />
    <path
       style="opacity:1;fill:url(#linearGradient840);fill-opacity:1;stroke-width:1.33333325"
       d="m 459.83008,307.13477 c -2.79334,0.0117 -5.0293,0.0781 -5.0293,0.0781 L 455,420 l 16.26758,-0.0137 0.0391,-93.77344 156.96094,93.75977 h 15 l 0.0527,-112.77344 h -16.43945 l 0.0391,94.1875 c 0,0 -99.34573,-59.12063 -149.03906,-88.64063 -3.2,-1.82666 -6.21497,-4.06604 -9.68164,-5.35937 -2.22667,-0.22 -5.57581,-0.26362 -8.36914,-0.25195 z m -493.529299,0.0781 c -20.241666,0.003 -36.433593,0.0137 -36.433593,0.0137 l 0.01367,13.82617 c 0,0 69.29198041,-0.0926 103.945313,0.10743 15.680005,0.58666 31.627032,1.28 46.707031,6 C 91.19987,330.34682 100.70664,338.28 104.30664,349 c 3.36,10.10667 3.22635,21.41279 -0.32031,31.43945 -3.56,9.98667 -12.453804,17.36032 -22.480471,20.32032 -15.426666,4.62666 -31.693354,5.22713 -47.693359,5.48046 -29.0533326,0.0667 -87.146484,0.0274 -87.146484,0.0274 l 0.04102,-23.44141 H -70.080078 L -70,420 c 38.573332,-0.0667 77.1473654,0.11924 115.720703,-0.10742 19.106666,-0.57334 39.411876,-1.69326 56.171877,-11.91992 12.53333,-7.62667 20.61474,-21.65357 21.4414,-36.24024 0.42667,-9.76 0.71959,-19.94648 -3.09375,-29.14648 -4.96,-13.26667 -16.57453,-23.34542 -29.894527,-27.71875 -20.319999,-6.92 -42.051688,-7.56029 -63.318359,-7.62696 -16.193333,-0.0267 -40.484897,-0.0307 -60.726563,-0.0273 z m 204.769529,0.008 c -3.41666,0 -6.15039,0.006 -6.15039,0.006 L 165,420 h 16.19922 l 0.12109,-112.74609 c -2.73333,-0.0267 -6.83333,-0.0332 -10.25,-0.0332 z"
       transform="matrix(0.75000002,0,0,0.75000002,66.669997,-194.3004)"
       id="path8"
       inkscape:connector-curvature="0" />
  </g>
</svg>
